# xmcd
#
# Track frame offsets: 
#        150
#        13935
#        27907
#        43023
#        58109
#        72206
#        85455
#        98658
#        112608
#        125589
#        141586
#        158146
#        174326
#        190165
#        203962
#        217954
#        230018
#        241246
#        253980
#        266977
#        278945
#
# Disc length: 3894 seconds
#
# Revision: 0
# Processed by: cddbd v1.5.2PL0 Copyright (c) Steve Scherf et al.
# Submitted via: ExactAudioCopy v0.99pb5
#
DISCID=3a0f3415
DTITLE=Leroy Carr - The Best of Leroy Carr, Vol. 1 - Whiskey Is My Hab
DTITLE=it
DYEAR=1900
DGENRE=30s
TTITLE0=How Long-How Long Blues
TTITLE1=Prison Bound Blues
TTITLE2=Straight Alky Blues Pt. 1
TTITLE3=Straight Alky Blues Pt. 2
TTITLE4=Gambler' s Blues
TTITLE5=Sloppy Drunk Blues
TTITLE6=Papa's on the House Top
TTITLE7=Midnight Hour Blues
TTITLE8=Mean Mistreater Mama
TTITLE9=Hurry Down Sunshine
TTITLE10=Corn Licker Blues
TTITLE11=Shady Lane Blues
TTITLE12=Blues before Sunrise
TTITLE13=Take a Walk around the Corner
TTITLE14=I Ain't Got No Money Now
TTITLE15=Motherless Child
TTITLE16=My Woman's Gone Wrong
TTITLE17=Southbound Blues
TTITLE18=Barrelhouse Woman
TTITLE19=Muddy Water
TTITLE20=When the Sun Goes Down
EXTD=
EXTT0=
EXTT1=
EXTT2=
EXTT3=
EXTT4=
EXTT5=
EXTT6=
EXTT7=
EXTT8=
EXTT9=
EXTT10=
EXTT11=
EXTT12=
EXTT13=
EXTT14=
EXTT15=
EXTT16=
EXTT17=
EXTT18=
EXTT19=
EXTT20=
PLAYORDER=
